<?xml version="1.0" standalone="no"?>
<!DOCTYPE svg PUBLIC "-//W3C//DTD SVG 20010904//EN"
 "http://www.w3.org/TR/2001/REC-SVG-20010904/DTD/svg10.dtd">
<svg version="1.0" xmlns="http://www.w3.org/2000/svg"
 width="110.000000pt" height="110.000000pt" viewBox="0 0 110.000000 110.000000"
 preserveAspectRatio="xMidYMid meet">
<metadata>
Created by potrace 1.11, written by Peter Selinger 2001-2013
</metadata>
<g transform="translate(0.000000,110.000000) scale(0.100000,-0.100000)"
fill="#000000" stroke="none">
<path d="M648 921 c-93 -53 -186 -114 -207 -135 -39 -38 -56 -73 -235 -478
l-26 -58 135 0 136 0 -16 30 c-10 20 -35 40 -70 57 -30 15 -55 30 -55 33 0 3
25 18 55 33 47 23 59 35 82 82 15 30 30 55 33 55 3 0 18 -25 33 -55 23 -47 35
-59 82 -82 30 -15 55 -30 55 -33 0 -3 -25 -18 -55 -33 -35 -17 -60 -37 -70
-57 l-16 -30 196 0 c108 0 194 3 192 8 -22 35 -167 397 -167 415 0 13 23 93
50 179 28 86 50 159 50 162 0 12 -17 3 -182 -93z m-60 -166 c7 -14 23 -30 37
-37 14 -6 25 -14 25 -18 0 -4 -11 -12 -25 -18 -14 -7 -30 -23 -37 -37 -6 -14
-14 -25 -18 -25 -4 0 -12 11 -18 25 -7 14 -23 30 -37 37 -14 6 -25 14 -25 18
0 4 11 12 25 18 14 7 30 23 37 37 6 14 14 25 18 25 4 0 12 -11 18 -25z"/>
<path d="M64 176 c-3 -7 -4 -33 -2 -57 l3 -44 475 0 475 0 0 55 0 55 -473 3
c-397 2 -473 0 -478 -12z"/>
</g>
</svg>
